<svg width="64" height="64" viewBox="0 0 64 64" fill="none" xmlns="http://www.w3.org/2000/svg">
<path d="M58.856 0H5.144C2.304 0 0 2.304 0 5.144V58.856C0 61.696 2.304 64 5.144 64H58.856C61.696 64 64 61.696 64 58.856V5.144C64 2.304 61.696 0 58.856 0ZM58.856 58.88C23.032 58.872 5.12 58.864 5.12 58.856C5.128 23.032 5.136 5.12 5.144 5.12C40.968 5.128 58.88 5.136 58.88 5.144C58.872 40.968 58.864 58.88 58.856 58.88ZM9.488 23.992H18.984V54.536H9.488V23.992ZM14.24 19.816C17.272 19.816 19.744 17.352 19.744 14.312C19.744 13.5892 19.6016 12.8735 19.325 12.2057C19.0484 11.5379 18.643 10.9312 18.1319 10.4201C17.6208 9.90899 17.0141 9.50357 16.3463 9.22697C15.6785 8.95037 14.9628 8.808 14.24 8.808C13.5172 8.808 12.8015 8.95037 12.1337 9.22697C11.4659 9.50357 10.8592 9.90899 10.3481 10.4201C9.83699 10.9312 9.43157 11.5379 9.15497 12.2057C8.87837 12.8735 8.736 13.5892 8.736 14.312C8.728 17.352 11.192 19.816 14.24 19.816ZM34.424 39.424C34.424 35.44 35.184 31.584 40.12 31.584C44.984 31.584 45.056 36.136 45.056 39.68V54.536H54.544V37.784C54.544 29.56 52.768 23.232 43.16 23.232C38.544 23.232 35.448 25.768 34.176 28.168H34.048V23.992H24.936V54.536H34.424V39.424Z" fill="white" fill-opacity="0.9"/>
</svg>
